<?xml version="1.0" standalone="no"?><!DOCTYPE svg PUBLIC "-//W3C//DTD SVG 1.1//EN" "http://www.w3.org/Graphics/SVG/1.1/DTD/svg11.dtd"><svg t="1726023023199" class="icon" viewBox="0 0 1024 1024" version="1.1" xmlns="http://www.w3.org/2000/svg" p-id="9407" xmlns:xlink="http://www.w3.org/1999/xlink" width="200" height="200"><path d="M269.543226 211.736774h347.499355a47.896774 47.896774 0 0 1 47.896774 47.896774H726.709677a111.31871 111.31871 0 0 0-109.667096-110.988387H269.543226a111.31871 111.31871 0 0 0-111.31871 111.31871v307.860645a111.31871 111.31871 0 0 0 111.31871 111.31871v-63.421936a47.896774 47.896774 0 0 1-47.896774-47.896774V259.963871a47.896774 47.896774 0 0 1 47.896774-48.227097z" fill="#666666" p-id="9408"></path><path d="M754.456774 293.987097H406.957419A111.31871 111.31871 0 0 0 297.290323 404.975484v307.860645A111.31871 111.31871 0 0 0 406.957419 825.806452h110.327742v-66.064517h-110.327742a47.896774 47.896774 0 0 1-47.896774-47.896774v-306.869677a47.896774 47.896774 0 0 1 47.896774-47.896774h347.499355a47.896774 47.896774 0 0 1 47.896774 47.896774v137.083871h63.091613v-137.083871a111.31871 111.31871 0 0 0-110.988387-110.988387z" fill="#666666" p-id="9409"></path><path d="M616.381935 620.676129h97.114839v254.67871h-97.114839zM767.009032 620.676129h97.114839v254.67871h-97.114839z" fill="#666666" p-id="9410"></path></svg>