<?xml version="1.0" standalone="no"?><!DOCTYPE svg PUBLIC "-//W3C//DTD SVG 1.1//EN" "http://www.w3.org/Graphics/SVG/1.1/DTD/svg11.dtd"><svg t="1726022984027" class="icon" viewBox="0 0 1024 1024" version="1.1" xmlns="http://www.w3.org/2000/svg" p-id="6457" xmlns:xlink="http://www.w3.org/1999/xlink" width="200" height="200"><path d="M709.202581 549.987097a179.365161 179.365161 0 1 0 184.980645 179.365161 182.007742 182.007742 0 0 0-184.980645-179.365161z m80.598709 185.971613l-106.363871 66.064516c-9.249032 5.615484-23.452903 0-23.452903-7.59742v-132.129032c0-8.588387 14.203871-13.212903 23.452903-7.597419l106.363871 66.064516a8.258065 8.258065 0 0 1 0 15.194839zM241.465806 179.034839h348.490323a48.227097 48.227097 0 0 1 48.227097 48.227096h63.421935a111.649032 111.649032 0 0 0-111.649032-111.649032H241.465806a111.649032 111.649032 0 0 0-111.649032 111.649032v308.851613a111.649032 111.649032 0 0 0 111.649032 111.649033v-63.421936a48.227097 48.227097 0 0 1-48.227096-48.227097V227.261935a48.227097 48.227097 0 0 1 48.227096-48.227096z" fill="#666666" p-id="6458"></path><path d="M330.322581 681.785806v-308.851612a48.227097 48.227097 0 0 1 48.227096-48.227097H726.709677a48.227097 48.227097 0 0 1 48.227097 48.227097v137.414193h63.421936v-137.414193A111.649032 111.649032 0 0 0 726.709677 261.285161H379.540645a111.649032 111.649032 0 0 0-111.649032 111.649033v308.851612A111.649032 111.649032 0 0 0 379.540645 792.774194h110.658065v-62.761291h-110.658065A48.227097 48.227097 0 0 1 330.322581 681.785806z" fill="#666666" p-id="6459"></path></svg>