<?xml version="1.0" standalone="no"?><!DOCTYPE svg PUBLIC "-//W3C//DTD SVG 1.1//EN" "http://www.w3.org/Graphics/SVG/1.1/DTD/svg11.dtd"><svg t="1726103881782" class="icon" viewBox="0 0 1024 1024" version="1.1" xmlns="http://www.w3.org/2000/svg" p-id="4146" xmlns:xlink="http://www.w3.org/1999/xlink" width="200" height="200"><path d="M113.778 113.778H455.11V455.11H113.778V113.778z m0 455.11H455.11v341.334H113.778V568.89z m455.11-455.11h341.334V455.11H568.89V113.778z m0 455.11h341.334v341.334H568.89V568.89z m-455.11-512a56.889 56.889 0 0 0-56.89 56.89v796.444a56.889 56.889 0 0 0 56.89 56.89h796.444a56.889 56.889 0 0 0 56.89-56.89V113.778a56.889 56.889 0 0 0-56.89-56.89H113.778z m0-56.888h796.444A113.778 113.778 0 0 1 1024 113.778v796.444A113.778 113.778 0 0 1 910.222 1024H113.778A113.778 113.778 0 0 1 0 910.222V113.778A113.778 113.778 0 0 1 113.778 0z" p-id="4147"></path></svg>