<?xml version="1.0" standalone="no"?><!DOCTYPE svg PUBLIC "-//W3C//DTD SVG 1.1//EN" "http://www.w3.org/Graphics/SVG/1.1/DTD/svg11.dtd"><svg t="1726103886043" class="icon" viewBox="0 0 1024 1024" version="1.1" xmlns="http://www.w3.org/2000/svg" p-id="2622" xmlns:xlink="http://www.w3.org/1999/xlink" width="200" height="200"><path d="M398.221611 113.778889h227.555778v227.554778H398.221611V113.778889z m0 284.443722h227.555778v227.555778H398.221611V398.222611z m0 284.444722h227.555778v227.554778H398.221611V682.667333z m284.444722-568.889444h227.554778v227.555778H682.666333V113.778889z m0 284.444722h227.554778v227.555778H682.666333V398.222611z m0 284.444722h227.554778v227.554778H682.666333V682.667333z m-568.889444-568.889444h227.555778v227.555778H113.777889V113.778889z m0 284.444722h227.555778v227.555778H113.777889V398.222611z m0 284.444722h227.555778v227.554778H113.777889V682.667333z m0-625.777389a56.888944 56.888944 0 0 0-56.887945 56.888945v796.443222a56.888944 56.888944 0 0 0 56.888945 56.889945h796.443222a56.888944 56.888944 0 0 0 56.889945-56.889945V113.778889a56.888944 56.888944 0 0 0-56.889945-56.889945H113.777889z m0-56.888944h796.444222A113.777889 113.777889 0 0 1 1023.999 113.778889v796.443222A113.777889 113.777889 0 0 1 910.221111 1024H113.777889A113.777889 113.777889 0 0 1 0 910.222111V113.778889A113.777889 113.777889 0 0 1 113.777889 0.001z" p-id="2623"></path></svg>