<?xml version="1.0" standalone="no"?><!DOCTYPE svg PUBLIC "-//W3C//DTD SVG 1.1//EN" "http://www.w3.org/Graphics/SVG/1.1/DTD/svg11.dtd"><svg t="1726034921158" class="icon" viewBox="0 0 1365 1024" version="1.1" xmlns="http://www.w3.org/2000/svg" p-id="3290" xmlns:xlink="http://www.w3.org/1999/xlink" width="266.6015625" height="200"><path d="M865.553067 0l123.0848 139.605333h279.210666c53.589333 0 97.4848 41.915733 97.4848 93.115734v698.1632c0 51.2-43.895467 93.115733-97.553066 93.115733H97.621333C43.895467 1024 0 982.084267 0 930.884267V232.789333c0-51.2 43.895467-93.115733 97.553067-93.115733H352.256L475.409067 0h390.144z m-39.936 80.827733H515.2768L417.792 191.419733l-25.6 29.0816H97.621333a12.4928 12.4928 0 0 0-12.219733 12.288v698.094934c0 6.690133 5.802667 12.288 12.219733 12.288H1267.712a12.4928 12.4928 0 0 0 12.219733-12.288V232.789333a12.4928 12.4928 0 0 0-12.219733-12.288h-319.010133l-25.6-28.945066-97.553067-110.592zM682.666667 252.3136c177.902933 0 320.989867 136.6016 320.989866 306.244267 0 169.5744-143.086933 306.176-320.989866 306.176s-320.989867-136.533333-320.989867-306.176c0-169.642667 143.086933-306.244267 320.989867-306.244267z m0 53.930667c-146.363733 0-264.123733 112.366933-264.123734 252.3136 0 139.946667 117.76 252.3136 264.123734 252.3136s264.123733-112.366933 264.123733-252.3136c0-139.946667-117.76-252.3136-264.123733-252.3136z m0 66.1504c107.246933 0 195.037867 83.7632 195.037866 186.1632 0 102.4-87.790933 186.1632-195.037866 186.1632-107.246933 0-195.037867-83.7632-195.037867-186.1632 0-102.4 87.790933-186.1632 195.037867-186.1632z" p-id="3291"></path></svg>