<?xml version="1.0" standalone="no"?><!DOCTYPE svg PUBLIC "-//W3C//DTD SVG 1.1//EN" "http://www.w3.org/Graphics/SVG/1.1/DTD/svg11.dtd"><svg t="1726104043767" class="icon" viewBox="0 0 1024 1024" version="1.1" xmlns="http://www.w3.org/2000/svg" p-id="2390" xmlns:xlink="http://www.w3.org/1999/xlink" width="200" height="200"><path d="M70.44496766 70.44496766v883.11006468h883.11006468v-883.11006468h-883.11006468m0-38.3960901h883.11006468c21.1178487 0 38.3960901 17.27823984 38.3960901 38.3960901v883.11006468c0 21.1178487-17.27823984 38.3960901-38.3960901 38.3960901h-883.11006468c-21.1178487 0-38.3960901-17.27823984-38.3960901-38.3960901v-883.11006468c0-21.1178487 17.27823984-38.3960901 38.3960901-38.3960901z" p-id="2391"></path><path d="M204.83128227 166.43519215h614.33743546c21.1178487 0 38.3960901 17.27823984 38.39609012 38.39609012v614.33743546c0 21.1178487-17.27823984 38.3960901-38.39609012 38.39609012h-614.33743546c-21.1178487 0-38.3960901-17.27823984-38.39609012-38.39609012v-614.33743546c0-21.1178487 17.27823984-38.3960901 38.39609012-38.39609012z" p-id="2392"></path></svg>