<?xml version="1.0" standalone="no"?><!DOCTYPE svg PUBLIC "-//W3C//DTD SVG 1.1//EN" "http://www.w3.org/Graphics/SVG/1.1/DTD/svg11.dtd"><svg t="1726104171166" class="icon" viewBox="0 0 1084 1024" version="1.1" xmlns="http://www.w3.org/2000/svg" p-id="8985" xmlns:xlink="http://www.w3.org/1999/xlink" width="211.71875" height="200"><path d="M843.451061 1023.992953H150.693699A151.235762 151.235762 0 0 1 0 873.299255V150.728391A151.235762 151.235762 0 0 1 150.693699 0.034692h692.757362z" fill="#689CFF" p-id="8986"></path><path d="M150.693699 60.203759a90.524632 90.524632 0 0 0-90.524632 90.524632v722.570864a90.524632 90.524632 0 0 0 90.524632 90.524631h632.046232V60.203759z" fill="#C8DEFF" p-id="8987"></path><path d="M933.433629 1023.992953h-29.271438v-60.169067h29.271438a87.27225 87.27225 0 0 0 23.850801-3.252382l15.177783 58.000813a133.347661 133.347661 0 0 1-39.028584 5.420636z m104.618287-42.280966l-41.738902-43.365093a92.150823 92.150823 0 0 0 23.850801-38.48652l57.458749 17.346037a153.404017 153.404017 0 0 1-39.570648 64.505576z m46.075412-133.889725h-60.169067v-60.71113H1084.127328z m0-121.964324h-60.169067v-61.253194H1084.127328z m0-121.964324h-60.169067V542.098356H1084.127328z m0-121.964325h-60.169067V420.676095H1084.127328z m0-121.964324h-60.169067V298.711771H1084.127328z m0-121.964324h-60.169067V176.747447H1084.127328zM1020.163815 124.709335a91.066696 91.066696 0 0 0-23.308737-38.48652l42.280966-43.365093A152.861953 152.861953 0 0 1 1077.622564 108.447425z m-62.879385-61.253194a87.27225 87.27225 0 0 0-23.850801-3.252382h-28.729374V0.034692h28.729374a143.104807 143.104807 0 0 1 42.280966 5.420637z" fill="#689CFF" p-id="8988"></path></svg>