<?xml version="1.0" standalone="no"?><!DOCTYPE svg PUBLIC "-//W3C//DTD SVG 1.1//EN" "http://www.w3.org/Graphics/SVG/1.1/DTD/svg11.dtd"><svg t="1726104180864" class="icon" viewBox="0 0 1084 1024" version="1.1" xmlns="http://www.w3.org/2000/svg" p-id="9998" xmlns:xlink="http://www.w3.org/1999/xlink" width="211.71875" height="200"><path d="M933.433629 1023.992953H240.676267V0.034692h692.757362A151.235762 151.235762 0 0 1 1084.127328 150.728391v722.570864a151.235762 151.235762 0 0 1-150.693699 150.693698z" fill="#689CFF" p-id="9999"></path><path d="M301.387397 963.823886h632.046232a90.524632 90.524632 0 0 0 90.524632-90.524631V150.728391a90.524632 90.524632 0 0 0-90.524632-90.524632H301.387397z" fill="#C8DEFF" p-id="10000"></path><path d="M179.965136 1023.992953h-29.271437a133.347661 133.347661 0 0 1-39.028584-5.420636l15.177782-58.000813a87.27225 87.27225 0 0 0 23.850802 3.252382h29.271437z m-133.889725-42.280966a153.404017 153.404017 0 0 1-39.570647-64.505576l57.458748-17.346037a92.150823 92.150823 0 0 0 23.850802 38.48652z m14.093656-133.889725H0v-60.71113h60.169067z m0-121.964324H0v-61.253194h60.169067z m0-121.964324H0V542.098356h60.169067z m0-121.964325H0V420.676095h60.169067z m0-121.964324H0V298.711771h60.169067z m0-121.964324H0V176.747447h60.169067z m3.794445-113.291306L6.504764 108.447425A152.861953 152.861953 0 0 1 44.991284 42.857722l42.280966 43.365093a91.066696 91.066696 0 0 0-23.308738 38.48652z m62.879385-61.253194L108.412733 5.455329a143.104807 143.104807 0 0 1 42.280966-5.420637h28.729374v60.169067h-28.729374a87.27225 87.27225 0 0 0-23.850802 3.252382z" fill="#689CFF" p-id="10001"></path></svg>